<?xml version="1.0" encoding="iso-8859-1"?>
<!-- Generator: Adobe Illustrator 19.0.0, SVG Export Plug-In . SVG Version: 6.00 Build 0)  -->
<svg version="1.1" id="Layer_1" xmlns="http://www.w3.org/2000/svg" xmlns:xlink="http://www.w3.org/1999/xlink" x="0px" y="0px"
	 viewBox="0 0 512 512" style="enable-background:new 0 0 512 512;" xml:space="preserve">
<g>
	<g>
		<path d="M256.004,154.433c-17.52,0-31.241,10.12-31.241,23.032c0,12.912,13.728,23.032,31.241,23.032
			c17.512,0,31.232-10.112,31.24-23.032C287.244,164.553,273.524,154.433,256.004,154.433z M256.004,184.497
			c-9.456,0-15.24-4.552-15.24-7.032s5.784-7.032,15.24-7.032c9.448,0,15.24,4.552,15.24,7.032S265.452,184.497,256.004,184.497z"/>
	</g>
</g>
<g>
	<g>
		<path d="M502.536,164.897l-242.9-69.721c-2.384-0.688-4.896-0.688-7.24-0.008L9.472,164.897C3.808,166.521,0,171.577,0,177.465
			c0,5.888,3.808,10.944,9.472,12.576l242.892,69.713c1.192,0.344,2.416,0.512,3.64,0.512c1.216,0,2.432-0.168,3.6-0.512
			l242.932-69.721c5.664-1.624,9.464-6.68,9.464-12.568C512,171.577,508.2,166.529,502.536,164.897z M256.004,244.146
			L23.672,177.465l232.332-66.689l232.332,66.689L256.004,244.146z"/>
	</g>
</g>
<g>
	<g>
		<path d="M231.748,175.817l-88.713,33.665c-3.104,1.176-5.16,4.152-5.16,7.48v59.905h16v-54.385l83.553-31.704L231.748,175.817z"/>
	</g>
</g>
<g>
	<g>
		<path d="M186.923,407.909l-16.096-88.041c4.328-5.536,6.672-12.272,6.672-19.384c0-17.44-14.184-31.617-31.617-31.617
			c-17.432,0-31.616,14.176-31.616,31.617c0,7.12,2.336,13.856,6.664,19.384l-16.096,88.041c-0.424,2.336,0.208,4.728,1.728,6.56
			c1.52,1.816,3.768,2.872,6.144,2.872h66.345c2.376,0,4.624-1.056,6.144-2.872C186.715,412.645,187.347,410.245,186.923,407.909z
			 M122.298,401.341l15.08-82.457c0.48-2.632-0.384-5.336-2.312-7.192c-3.096-2.984-4.8-6.968-4.8-11.208
			c0-8.608,7-15.616,15.616-15.616s15.616,7.008,15.616,15.616c0,4.24-1.712,8.224-4.808,11.208
			c-1.928,1.856-2.792,4.56-2.312,7.192l15.08,82.457H122.298z"/>
	</g>
</g>
<g>
	<g>
		<path d="M419.847,271.963c-2.784-21.928-10-42.929-21.456-62.425c-1.848-3.144-5.6-4.64-9.112-3.64l-133.274,38.257
			l-133.306-38.257c-3.496-1-7.256,0.488-9.104,3.64c-11.4,19.408-18.6,40.321-21.416,62.161
			c-1.96,15.208,6.52,30.088,20.632,36.185l6.624,2.808l6.248-14.736l-6.52-2.76c-7.6-3.288-12.168-11.288-11.112-19.456
			c2.28-17.688,7.768-34.721,16.328-50.713l128.002,36.737c2.368,0.68,4.88,0.688,7.24,0.008l128.002-36.745
			c8.6,16.08,14.096,33.185,16.352,50.961c1.056,8.224-3.36,16.016-10.968,19.4c-49.849,22.12-93.777,36.489-134.314,43.961
			c-2.136,0.408-4.296,0.4-6.432,0.016c-25.208-4.592-53.609-12.912-86.833-25.424l-5.64,14.968
			c34.137,12.856,63.449,21.424,89.601,26.184c2.008,0.368,4.032,0.552,6.056,0.552c2.056,0,4.112-0.192,6.152-0.56
			c41.777-7.696,86.881-22.44,137.898-45.073C413.622,301.739,421.791,287.243,419.847,271.963z"/>
	</g>
</g>
<g>
</g>
<g>
</g>
<g>
</g>
<g>
</g>
<g>
</g>
<g>
</g>
<g>
</g>
<g>
</g>
<g>
</g>
<g>
</g>
<g>
</g>
<g>
</g>
<g>
</g>
<g>
</g>
<g>
</g>
</svg>
