<svg height="480pt" viewBox="0 -144 480 480" width="480pt" xmlns="http://www.w3.org/2000/svg"><path d="m472 72h-16v-40c0-4.417969-3.582031-8-8-8h-40v-16c0-4.417969-3.582031-8-8-8h-48c-4.417969 0-8 3.582031-8 8v64h-208v-64c0-4.417969-3.582031-8-8-8h-48c-4.417969 0-8 3.582031-8 8v16h-40c-4.417969 0-8 3.582031-8 8v40h-16c-4.417969 0-8 3.582031-8 8v32c0 4.417969 3.582031 8 8 8h16v40c0 4.417969 3.582031 8 8 8h40v16c0 4.417969 3.582031 8 8 8h48c4.417969 0 8-3.582031 8-8v-64h208v64c0 4.417969 3.582031 8 8 8h48c4.417969 0 8-3.582031 8-8v-16h40c4.417969 0 8-3.582031 8-8v-40h16c4.417969 0 8-3.582031 8-8v-32c0-4.417969-3.582031-8-8-8zm-456 32v-16h8v16zm24 48v-112h32v112zm80 24h-32v-160h32zm16-72v-16h208v16zm256 72h-32v-160h32zm48-24h-32v-112h32zm24-48h-8v-16h8zm0 0"/></svg>